<mxfile host="app.diagrams.net" modified="2021-06-16T07:39:05.615Z" agent="5.0 (Windows NT 10.0; Win64; x64) AppleWebKit/537.36 (KHTML, like Gecko) Chrome/91.0.4472.101 Safari/537.36 Edg/91.0.864.48" etag="hldPRI9xHdCTgXysHDbH" version="14.7.8" type="github" pages="2">
  <diagram id="rUpCesKWym2yzDdaM4-F" name="Page-1">
    <mxGraphModel dx="820" dy="450" grid="1" gridSize="10" guides="1" tooltips="1" connect="1" arrows="1" fold="1" page="1" pageScale="1" pageWidth="827" pageHeight="1169" math="0" shadow="0">
      <root>
        <mxCell id="0" />
        <mxCell id="1" parent="0" />
        <mxCell id="Au0dYbE2_iUlMPQlo_fS-19" value="" style="rounded=0;whiteSpace=wrap;html=1;fillColor=#fff2cc;dashed=1;strokeColor=#d6b656;" vertex="1" parent="1">
          <mxGeometry x="460" y="326" width="170" height="40" as="geometry" />
        </mxCell>
        <mxCell id="Au0dYbE2_iUlMPQlo_fS-18" value="" style="rounded=0;whiteSpace=wrap;html=1;fillColor=#fff2cc;dashed=1;strokeColor=#d6b656;" vertex="1" parent="1">
          <mxGeometry x="460" y="261" width="170" height="40" as="geometry" />
        </mxCell>
        <mxCell id="Au0dYbE2_iUlMPQlo_fS-17" value="" style="rounded=0;whiteSpace=wrap;html=1;fillColor=#fff2cc;dashed=1;strokeColor=#d6b656;" vertex="1" parent="1">
          <mxGeometry x="460" y="190" width="170" height="40" as="geometry" />
        </mxCell>
        <mxCell id="Au0dYbE2_iUlMPQlo_fS-4" value="" style="rounded=0;whiteSpace=wrap;html=1;dashed=1;fillColor=none;strokeWidth=1;" vertex="1" parent="1">
          <mxGeometry x="70" y="120" width="690" height="320" as="geometry" />
        </mxCell>
        <mxCell id="Au0dYbE2_iUlMPQlo_fS-7" value="" style="rounded=0;orthogonalLoop=1;jettySize=auto;html=1;entryX=0;entryY=0.5;entryDx=0;entryDy=0;exitX=1;exitY=0.5;exitDx=0;exitDy=0;fillColor=#dae8fc;strokeColor=#6c8ebf;" edge="1" parent="1" source="qjiLqE5KciPBCRX5kfmD-9" target="Au0dYbE2_iUlMPQlo_fS-5">
          <mxGeometry relative="1" as="geometry" />
        </mxCell>
        <mxCell id="qjiLqE5KciPBCRX5kfmD-9" value="User" style="rounded=1;whiteSpace=wrap;html=1;fontSize=15;shadow=0;sketch=0;glass=0;fillColor=#dae8fc;strokeColor=#6c8ebf;" vertex="1" parent="1">
          <mxGeometry x="5" y="206" width="50" height="30" as="geometry" />
        </mxCell>
        <mxCell id="Au0dYbE2_iUlMPQlo_fS-8" value="" style="edgeStyle=none;rounded=0;orthogonalLoop=1;jettySize=auto;html=1;fillColor=#dae8fc;strokeColor=#6c8ebf;" edge="1" parent="1" source="Au0dYbE2_iUlMPQlo_fS-1" target="Au0dYbE2_iUlMPQlo_fS-5">
          <mxGeometry relative="1" as="geometry" />
        </mxCell>
        <mxCell id="Au0dYbE2_iUlMPQlo_fS-1" value="User" style="rounded=1;whiteSpace=wrap;html=1;fontSize=15;shadow=0;sketch=0;glass=0;fillColor=#dae8fc;strokeColor=#6c8ebf;" vertex="1" parent="1">
          <mxGeometry x="5" y="266" width="50" height="30" as="geometry" />
        </mxCell>
        <mxCell id="Au0dYbE2_iUlMPQlo_fS-9" value="" style="edgeStyle=none;rounded=0;orthogonalLoop=1;jettySize=auto;html=1;exitX=1;exitY=0.5;exitDx=0;exitDy=0;fillColor=#dae8fc;strokeColor=#6c8ebf;" edge="1" parent="1" source="Au0dYbE2_iUlMPQlo_fS-2">
          <mxGeometry relative="1" as="geometry">
            <mxPoint x="89" y="281" as="targetPoint" />
          </mxGeometry>
        </mxCell>
        <mxCell id="Au0dYbE2_iUlMPQlo_fS-2" value="User" style="rounded=1;whiteSpace=wrap;html=1;fontSize=15;shadow=0;sketch=0;glass=0;fillColor=#dae8fc;strokeColor=#6c8ebf;" vertex="1" parent="1">
          <mxGeometry x="5" y="326" width="50" height="30" as="geometry" />
        </mxCell>
        <mxCell id="Au0dYbE2_iUlMPQlo_fS-5" value="" style="rounded=0;whiteSpace=wrap;html=1;dashed=1;gradientColor=none;fillColor=none;fontColor=#FFCCCC;strokeColor=#FF6666;" vertex="1" parent="1">
          <mxGeometry x="90" y="251" width="140" height="60" as="geometry" />
        </mxCell>
        <mxCell id="Au0dYbE2_iUlMPQlo_fS-6" value="" style="rounded=0;whiteSpace=wrap;html=1;dashed=1;fillColor=none;gradientColor=none;strokeWidth=1;" vertex="1" parent="1">
          <mxGeometry x="340" y="160" width="300" height="240" as="geometry" />
        </mxCell>
        <mxCell id="Au0dYbE2_iUlMPQlo_fS-32" value="" style="edgeStyle=none;rounded=0;orthogonalLoop=1;jettySize=auto;html=1;fillColor=#d5e8d4;strokeColor=#82b366;" edge="1" parent="1" source="Au0dYbE2_iUlMPQlo_fS-10" target="Au0dYbE2_iUlMPQlo_fS-25">
          <mxGeometry relative="1" as="geometry" />
        </mxCell>
        <mxCell id="Au0dYbE2_iUlMPQlo_fS-10" value="&lt;span&gt;NioEventLoop&lt;/span&gt;" style="rounded=1;whiteSpace=wrap;html=1;fillColor=#d5e8d4;strokeColor=#82b366;" vertex="1" parent="1">
          <mxGeometry x="360" y="261" width="80" height="40" as="geometry" />
        </mxCell>
        <mxCell id="Au0dYbE2_iUlMPQlo_fS-11" value="" style="endArrow=classic;html=1;exitX=1;exitY=0.5;exitDx=0;exitDy=0;entryX=0;entryY=0.5;entryDx=0;entryDy=0;startArrow=none;fillColor=#d5e8d4;strokeColor=#82b366;" edge="1" parent="1" source="Au0dYbE2_iUlMPQlo_fS-36" target="Au0dYbE2_iUlMPQlo_fS-10">
          <mxGeometry width="50" height="50" relative="1" as="geometry">
            <mxPoint x="260" y="320" as="sourcePoint" />
            <mxPoint x="310" y="270" as="targetPoint" />
          </mxGeometry>
        </mxCell>
        <mxCell id="Au0dYbE2_iUlMPQlo_fS-31" value="" style="edgeStyle=none;rounded=0;orthogonalLoop=1;jettySize=auto;html=1;fillColor=#d5e8d4;strokeColor=#82b366;" edge="1" parent="1" source="Au0dYbE2_iUlMPQlo_fS-12" target="Au0dYbE2_iUlMPQlo_fS-22">
          <mxGeometry relative="1" as="geometry" />
        </mxCell>
        <mxCell id="Au0dYbE2_iUlMPQlo_fS-12" value="NioEventLoop" style="rounded=1;whiteSpace=wrap;html=1;fillColor=#d5e8d4;strokeColor=#82b366;" vertex="1" parent="1">
          <mxGeometry x="360" y="190" width="80" height="40" as="geometry" />
        </mxCell>
        <mxCell id="Au0dYbE2_iUlMPQlo_fS-33" value="" style="edgeStyle=none;rounded=0;orthogonalLoop=1;jettySize=auto;html=1;fillColor=#d5e8d4;strokeColor=#82b366;" edge="1" parent="1" source="Au0dYbE2_iUlMPQlo_fS-13" target="Au0dYbE2_iUlMPQlo_fS-28">
          <mxGeometry relative="1" as="geometry" />
        </mxCell>
        <mxCell id="Au0dYbE2_iUlMPQlo_fS-13" value="&lt;span&gt;NioEventLoop&lt;/span&gt;" style="rounded=1;whiteSpace=wrap;html=1;fillColor=#d5e8d4;strokeColor=#82b366;" vertex="1" parent="1">
          <mxGeometry x="360" y="326" width="80" height="40" as="geometry" />
        </mxCell>
        <mxCell id="Au0dYbE2_iUlMPQlo_fS-14" value="" style="endArrow=classic;html=1;entryX=0;entryY=0.5;entryDx=0;entryDy=0;fillColor=#d5e8d4;strokeColor=#82b366;" edge="1" parent="1" target="Au0dYbE2_iUlMPQlo_fS-12">
          <mxGeometry width="50" height="50" relative="1" as="geometry">
            <mxPoint x="310" y="280" as="sourcePoint" />
            <mxPoint x="320" y="190" as="targetPoint" />
          </mxGeometry>
        </mxCell>
        <mxCell id="Au0dYbE2_iUlMPQlo_fS-15" value="" style="endArrow=classic;html=1;entryX=0;entryY=0.5;entryDx=0;entryDy=0;fillColor=#d5e8d4;strokeColor=#82b366;" edge="1" parent="1" target="Au0dYbE2_iUlMPQlo_fS-13">
          <mxGeometry width="50" height="50" relative="1" as="geometry">
            <mxPoint x="310" y="280" as="sourcePoint" />
            <mxPoint x="250" y="470" as="targetPoint" />
          </mxGeometry>
        </mxCell>
        <mxCell id="Au0dYbE2_iUlMPQlo_fS-20" value="&lt;font style=&quot;font-size: 11px&quot;&gt;NioEventLoop&lt;/font&gt;" style="rounded=1;whiteSpace=wrap;html=1;fillColor=#f8cecc;fontSize=10;strokeColor=#b85450;" vertex="1" parent="1">
          <mxGeometry x="140" y="266" width="80" height="30" as="geometry" />
        </mxCell>
        <mxCell id="Au0dYbE2_iUlMPQlo_fS-21" value="" style="endArrow=classic;html=1;exitX=0;exitY=0.5;exitDx=0;exitDy=0;entryX=0;entryY=0.5;entryDx=0;entryDy=0;fillColor=#dae8fc;strokeColor=#6c8ebf;" edge="1" parent="1" source="Au0dYbE2_iUlMPQlo_fS-5" target="Au0dYbE2_iUlMPQlo_fS-20">
          <mxGeometry width="50" height="50" relative="1" as="geometry">
            <mxPoint x="110" y="400" as="sourcePoint" />
            <mxPoint x="160" y="350" as="targetPoint" />
          </mxGeometry>
        </mxCell>
        <mxCell id="Au0dYbE2_iUlMPQlo_fS-22" value="&lt;font style=&quot;font-size: 11px&quot;&gt;Handler&lt;/font&gt;" style="rounded=1;whiteSpace=wrap;html=1;fillColor=#fff2cc;strokeColor=#d6b656;" vertex="1" parent="1">
          <mxGeometry x="470" y="195" width="50" height="30" as="geometry" />
        </mxCell>
        <mxCell id="Au0dYbE2_iUlMPQlo_fS-23" value="&lt;font style=&quot;font-size: 11px&quot;&gt;Handler&lt;/font&gt;" style="rounded=1;whiteSpace=wrap;html=1;fillColor=#fff2cc;strokeColor=#d6b656;" vertex="1" parent="1">
          <mxGeometry x="570" y="195" width="50" height="30" as="geometry" />
        </mxCell>
        <mxCell id="Au0dYbE2_iUlMPQlo_fS-24" value="" style="endArrow=none;dashed=1;html=1;dashPattern=1 3;strokeWidth=2;fillColor=#fff2cc;strokeColor=#d6b656;" edge="1" parent="1">
          <mxGeometry width="50" height="50" relative="1" as="geometry">
            <mxPoint x="537" y="210.5" as="sourcePoint" />
            <mxPoint x="557" y="210.5" as="targetPoint" />
          </mxGeometry>
        </mxCell>
        <mxCell id="Au0dYbE2_iUlMPQlo_fS-25" value="&lt;font style=&quot;font-size: 11px&quot;&gt;Handler&lt;/font&gt;" style="rounded=1;whiteSpace=wrap;html=1;fillColor=#fff2cc;strokeColor=#d6b656;" vertex="1" parent="1">
          <mxGeometry x="470" y="266" width="50" height="30" as="geometry" />
        </mxCell>
        <mxCell id="Au0dYbE2_iUlMPQlo_fS-43" value="" style="edgeStyle=none;rounded=0;orthogonalLoop=1;jettySize=auto;html=1;fontFamily=Helvetica;fontSize=7;fontColor=#FFCCCC;strokeColor=#D6B656;" edge="1" parent="1" source="Au0dYbE2_iUlMPQlo_fS-26" target="Au0dYbE2_iUlMPQlo_fS-41">
          <mxGeometry relative="1" as="geometry" />
        </mxCell>
        <mxCell id="Au0dYbE2_iUlMPQlo_fS-26" value="&lt;font style=&quot;font-size: 11px&quot;&gt;Handler&lt;/font&gt;" style="rounded=1;whiteSpace=wrap;html=1;fillColor=#fff2cc;strokeColor=#d6b656;" vertex="1" parent="1">
          <mxGeometry x="570" y="266" width="50" height="30" as="geometry" />
        </mxCell>
        <mxCell id="Au0dYbE2_iUlMPQlo_fS-27" value="" style="endArrow=none;dashed=1;html=1;dashPattern=1 3;strokeWidth=2;fillColor=#fff2cc;strokeColor=#d6b656;" edge="1" parent="1">
          <mxGeometry width="50" height="50" relative="1" as="geometry">
            <mxPoint x="537" y="280.5" as="sourcePoint" />
            <mxPoint x="557" y="280.5" as="targetPoint" />
          </mxGeometry>
        </mxCell>
        <mxCell id="Au0dYbE2_iUlMPQlo_fS-28" value="&lt;font style=&quot;font-size: 11px&quot;&gt;Handler&lt;/font&gt;" style="rounded=1;whiteSpace=wrap;html=1;fillColor=#fff2cc;strokeColor=#d6b656;" vertex="1" parent="1">
          <mxGeometry x="470" y="331" width="50" height="30" as="geometry" />
        </mxCell>
        <mxCell id="Au0dYbE2_iUlMPQlo_fS-29" value="&lt;font style=&quot;font-size: 11px&quot;&gt;Handler&lt;/font&gt;" style="rounded=1;whiteSpace=wrap;html=1;fillColor=#fff2cc;strokeColor=#d6b656;" vertex="1" parent="1">
          <mxGeometry x="570" y="331" width="50" height="30" as="geometry" />
        </mxCell>
        <mxCell id="Au0dYbE2_iUlMPQlo_fS-30" value="" style="endArrow=none;dashed=1;html=1;dashPattern=1 3;strokeWidth=2;fillColor=#fff2cc;strokeColor=#d6b656;" edge="1" parent="1">
          <mxGeometry width="50" height="50" relative="1" as="geometry">
            <mxPoint x="537" y="345.5" as="sourcePoint" />
            <mxPoint x="557" y="345.5" as="targetPoint" />
          </mxGeometry>
        </mxCell>
        <mxCell id="Au0dYbE2_iUlMPQlo_fS-34" value="Accept" style="rounded=0;whiteSpace=wrap;html=1;dashed=1;gradientColor=none;fillColor=none;strokeColor=none;" vertex="1" parent="1">
          <mxGeometry x="90" y="251" width="46" height="26" as="geometry" />
        </mxCell>
        <mxCell id="Au0dYbE2_iUlMPQlo_fS-36" value="" style="ellipse;whiteSpace=wrap;html=1;aspect=fixed;rounded=1;fontSize=10;strokeColor=#82b366;fillColor=#d5e8d4;" vertex="1" parent="1">
          <mxGeometry x="250" y="260.25" width="39.5" height="39.5" as="geometry" />
        </mxCell>
        <mxCell id="Au0dYbE2_iUlMPQlo_fS-37" value="" style="endArrow=none;html=1;exitX=1;exitY=0.5;exitDx=0;exitDy=0;entryX=0;entryY=0.5;entryDx=0;entryDy=0;strokeColor=#82B366;" edge="1" parent="1" source="Au0dYbE2_iUlMPQlo_fS-5" target="Au0dYbE2_iUlMPQlo_fS-36">
          <mxGeometry width="50" height="50" relative="1" as="geometry">
            <mxPoint x="229.9999999999999" y="281" as="sourcePoint" />
            <mxPoint x="250.00000000000227" y="280" as="targetPoint" />
          </mxGeometry>
        </mxCell>
        <mxCell id="Au0dYbE2_iUlMPQlo_fS-38" value="BossEventLoopGroup" style="rounded=0;whiteSpace=wrap;html=1;dashed=1;gradientColor=none;fillColor=none;strokeColor=none;" vertex="1" parent="1">
          <mxGeometry x="100" y="221" width="120" height="26" as="geometry" />
        </mxCell>
        <mxCell id="Au0dYbE2_iUlMPQlo_fS-39" value="&lt;font style=&quot;font-size: 6px&quot;&gt;NioServerSocketChannel&lt;/font&gt;" style="rounded=0;whiteSpace=wrap;html=1;dashed=1;gradientColor=none;fillColor=none;strokeColor=none;fontFamily=Helvetica;fontSize=7;" vertex="1" parent="1">
          <mxGeometry x="209.75" y="311" width="120" height="26" as="geometry" />
        </mxCell>
        <mxCell id="Au0dYbE2_iUlMPQlo_fS-40" value="&lt;font style=&quot;font-size: 11px&quot; color=&quot;#d6b656&quot;&gt;ChannelPipeline&lt;/font&gt;" style="rounded=0;whiteSpace=wrap;html=1;dashed=1;gradientColor=none;fillColor=none;strokeColor=none;fontFamily=Helvetica;fontSize=7;" vertex="1" parent="1">
          <mxGeometry x="485" y="160" width="120" height="26" as="geometry" />
        </mxCell>
        <mxCell id="Au0dYbE2_iUlMPQlo_fS-49" value="" style="edgeStyle=none;rounded=0;orthogonalLoop=1;jettySize=auto;html=1;fontFamily=Helvetica;fontSize=7;fontColor=#D6B656;strokeColor=#9673A6;" edge="1" parent="1" source="Au0dYbE2_iUlMPQlo_fS-41" target="Au0dYbE2_iUlMPQlo_fS-47">
          <mxGeometry relative="1" as="geometry" />
        </mxCell>
        <mxCell id="Au0dYbE2_iUlMPQlo_fS-41" value="" style="ellipse;whiteSpace=wrap;html=1;aspect=fixed;rounded=1;fontSize=10;fillColor=#e1d5e7;strokeColor=#9673A6;" vertex="1" parent="1">
          <mxGeometry x="670" y="250.12" width="59.75" height="59.75" as="geometry" />
        </mxCell>
        <mxCell id="Au0dYbE2_iUlMPQlo_fS-42" value="" style="endArrow=classic;html=1;fontFamily=Helvetica;fontSize=7;exitX=1;exitY=0.5;exitDx=0;exitDy=0;entryX=0;entryY=0.5;entryDx=0;entryDy=0;fontColor=#D6B656;strokeColor=#D6B656;" edge="1" parent="1" source="Au0dYbE2_iUlMPQlo_fS-23" target="Au0dYbE2_iUlMPQlo_fS-41">
          <mxGeometry width="50" height="50" relative="1" as="geometry">
            <mxPoint x="720" y="220" as="sourcePoint" />
            <mxPoint x="740" y="190" as="targetPoint" />
          </mxGeometry>
        </mxCell>
        <mxCell id="Au0dYbE2_iUlMPQlo_fS-44" value="" style="endArrow=classic;html=1;fontFamily=Helvetica;fontSize=7;fontColor=#FFCCCC;exitX=1;exitY=0.5;exitDx=0;exitDy=0;strokeColor=#D6B656;" edge="1" parent="1" source="Au0dYbE2_iUlMPQlo_fS-29">
          <mxGeometry width="50" height="50" relative="1" as="geometry">
            <mxPoint x="730" y="410" as="sourcePoint" />
            <mxPoint x="668" y="280" as="targetPoint" />
          </mxGeometry>
        </mxCell>
        <mxCell id="Au0dYbE2_iUlMPQlo_fS-46" value="server" style="rounded=1;whiteSpace=wrap;html=1;fontSize=15;shadow=0;sketch=0;glass=0;" vertex="1" parent="1">
          <mxGeometry x="773" y="205" width="50" height="30" as="geometry" />
        </mxCell>
        <mxCell id="Au0dYbE2_iUlMPQlo_fS-47" value="server" style="rounded=1;whiteSpace=wrap;html=1;fontSize=15;shadow=0;sketch=0;glass=0;" vertex="1" parent="1">
          <mxGeometry x="773" y="265" width="50" height="30" as="geometry" />
        </mxCell>
        <mxCell id="Au0dYbE2_iUlMPQlo_fS-48" value="server" style="rounded=1;whiteSpace=wrap;html=1;fontSize=15;shadow=0;sketch=0;glass=0;" vertex="1" parent="1">
          <mxGeometry x="773" y="325" width="50" height="30" as="geometry" />
        </mxCell>
        <mxCell id="Au0dYbE2_iUlMPQlo_fS-50" value="" style="endArrow=classic;html=1;fontFamily=Helvetica;fontSize=7;fontColor=#D6B656;entryX=0;entryY=0.5;entryDx=0;entryDy=0;strokeColor=#9673A6;exitX=1;exitY=0.5;exitDx=0;exitDy=0;" edge="1" parent="1" source="Au0dYbE2_iUlMPQlo_fS-41" target="Au0dYbE2_iUlMPQlo_fS-46">
          <mxGeometry width="50" height="50" relative="1" as="geometry">
            <mxPoint x="750" y="280" as="sourcePoint" />
            <mxPoint x="870" y="390" as="targetPoint" />
          </mxGeometry>
        </mxCell>
        <mxCell id="Au0dYbE2_iUlMPQlo_fS-51" value="" style="endArrow=classic;html=1;fontFamily=Helvetica;fontSize=7;fontColor=#D6B656;strokeColor=#9673A6;exitX=1;exitY=0.5;exitDx=0;exitDy=0;entryX=0;entryY=0.5;entryDx=0;entryDy=0;" edge="1" parent="1" source="Au0dYbE2_iUlMPQlo_fS-41" target="Au0dYbE2_iUlMPQlo_fS-48">
          <mxGeometry width="50" height="50" relative="1" as="geometry">
            <mxPoint x="840" y="450" as="sourcePoint" />
            <mxPoint x="798" y="390" as="targetPoint" />
          </mxGeometry>
        </mxCell>
        <mxCell id="Au0dYbE2_iUlMPQlo_fS-52" value="&lt;font style=&quot;font-size: 11px&quot; color=&quot;#9673a6&quot;&gt;ListenerThreadPool&lt;/font&gt;" style="rounded=0;whiteSpace=wrap;html=1;dashed=1;gradientColor=none;fillColor=none;strokeColor=none;fontFamily=Helvetica;fontSize=7;" vertex="1" parent="1">
          <mxGeometry x="639.88" y="311" width="120" height="26" as="geometry" />
        </mxCell>
        <mxCell id="Au0dYbE2_iUlMPQlo_fS-53" value="&lt;font style=&quot;font-size: 11px&quot;&gt;Register&lt;/font&gt;" style="rounded=0;whiteSpace=wrap;html=1;dashed=1;gradientColor=none;fillColor=none;strokeColor=none;fontFamily=Helvetica;fontSize=7;" vertex="1" parent="1">
          <mxGeometry x="250" y="230" width="120" height="26" as="geometry" />
        </mxCell>
        <mxCell id="rHqNTD5HF0JsgKZ3GTx3-1" value="&lt;font style=&quot;font-size: 18px&quot;&gt;Proxy Server&lt;/font&gt;" style="rounded=0;whiteSpace=wrap;html=1;dashed=1;gradientColor=none;fillColor=none;strokeColor=none;fontFamily=Helvetica;fontSize=7;" vertex="1" parent="1">
          <mxGeometry x="100" y="134" width="120" height="26" as="geometry" />
        </mxCell>
      </root>
    </mxGraphModel>
  </diagram>
  <diagram id="E_z4m-WTfPhZabOEwu21" name="Page-2">
    <mxGraphModel dx="820" dy="450" grid="1" gridSize="10" guides="1" tooltips="1" connect="1" arrows="1" fold="1" page="1" pageScale="1" pageWidth="827" pageHeight="1169" math="0" shadow="0">
      <root>
        <mxCell id="9hZkq3OmeFO8TmYf6UCF-0" />
        <mxCell id="9hZkq3OmeFO8TmYf6UCF-1" parent="9hZkq3OmeFO8TmYf6UCF-0" />
        <mxCell id="9hZkq3OmeFO8TmYf6UCF-2" value="" style="rounded=0;whiteSpace=wrap;html=1;fontSize=15;dashed=1;" vertex="1" parent="9hZkq3OmeFO8TmYf6UCF-1">
          <mxGeometry x="130" y="140" width="600" height="530" as="geometry" />
        </mxCell>
        <mxCell id="9hZkq3OmeFO8TmYf6UCF-3" value="&lt;div style=&quot;text-align: justify&quot;&gt;&lt;/div&gt;" style="rounded=0;whiteSpace=wrap;html=1;shadow=0;glass=0;dashed=1;sketch=0;gradientColor=none;fillColor=#FFFFFF;" vertex="1" parent="9hZkq3OmeFO8TmYf6UCF-1">
          <mxGeometry x="150" y="181.37" width="440" height="97.25" as="geometry" />
        </mxCell>
        <mxCell id="9hZkq3OmeFO8TmYf6UCF-4" value="&lt;div style=&quot;text-align: justify&quot;&gt;&lt;/div&gt;" style="rounded=0;whiteSpace=wrap;html=1;shadow=0;glass=0;dashed=1;sketch=0;gradientColor=none;fillColor=#FFFFFF;" vertex="1" parent="9hZkq3OmeFO8TmYf6UCF-1">
          <mxGeometry x="612" y="160" width="105" height="490" as="geometry" />
        </mxCell>
        <mxCell id="9hZkq3OmeFO8TmYf6UCF-5" value="http协议解析" style="rounded=1;whiteSpace=wrap;html=1;fontSize=15;" vertex="1" parent="9hZkq3OmeFO8TmYf6UCF-1">
          <mxGeometry x="230" y="189.99" width="40" height="80" as="geometry" />
        </mxCell>
        <mxCell id="9hZkq3OmeFO8TmYf6UCF-6" value="http响应封装" style="rounded=1;whiteSpace=wrap;html=1;fontSize=15;" vertex="1" parent="9hZkq3OmeFO8TmYf6UCF-1">
          <mxGeometry x="290" y="189.99" width="40" height="80" as="geometry" />
        </mxCell>
        <mxCell id="9hZkq3OmeFO8TmYf6UCF-7" value="ws协议解析" style="rounded=1;whiteSpace=wrap;html=1;fontSize=15;" vertex="1" parent="9hZkq3OmeFO8TmYf6UCF-1">
          <mxGeometry x="410" y="189.99" width="40" height="80" as="geometry" />
        </mxCell>
        <mxCell id="9hZkq3OmeFO8TmYf6UCF-8" value="ws处理器" style="rounded=1;whiteSpace=wrap;html=1;fontSize=15;" vertex="1" parent="9hZkq3OmeFO8TmYf6UCF-1">
          <mxGeometry x="470" y="189.99" width="40" height="80" as="geometry" />
        </mxCell>
        <mxCell id="9hZkq3OmeFO8TmYf6UCF-9" value="会话管理器" style="rounded=1;whiteSpace=wrap;html=1;fontSize=15;" vertex="1" parent="9hZkq3OmeFO8TmYf6UCF-1">
          <mxGeometry x="530" y="189.99" width="40" height="80" as="geometry" />
        </mxCell>
        <mxCell id="9hZkq3OmeFO8TmYf6UCF-10" value="用户" style="rounded=1;whiteSpace=wrap;html=1;fontSize=15;shadow=0;sketch=0;glass=0;" vertex="1" parent="9hZkq3OmeFO8TmYf6UCF-1">
          <mxGeometry x="20" y="212.49" width="70" height="41" as="geometry" />
        </mxCell>
        <mxCell id="9hZkq3OmeFO8TmYf6UCF-11" value="心跳检测" style="rounded=1;whiteSpace=wrap;html=1;fontSize=15;" vertex="1" parent="9hZkq3OmeFO8TmYf6UCF-1">
          <mxGeometry x="350" y="189.99" width="40" height="80" as="geometry" />
        </mxCell>
        <mxCell id="9hZkq3OmeFO8TmYf6UCF-12" value="用户" style="rounded=1;whiteSpace=wrap;html=1;fontSize=15;shadow=0;sketch=0;glass=0;" vertex="1" parent="9hZkq3OmeFO8TmYf6UCF-1">
          <mxGeometry x="20" y="329.5" width="70" height="41" as="geometry" />
        </mxCell>
        <mxCell id="9hZkq3OmeFO8TmYf6UCF-13" value="用户" style="rounded=1;whiteSpace=wrap;html=1;fontSize=15;shadow=0;sketch=0;glass=0;" vertex="1" parent="9hZkq3OmeFO8TmYf6UCF-1">
          <mxGeometry x="20" y="446.88" width="70" height="39" as="geometry" />
        </mxCell>
        <mxCell id="9hZkq3OmeFO8TmYf6UCF-14" value="用户" style="rounded=1;whiteSpace=wrap;html=1;fontSize=15;shadow=0;sketch=0;glass=0;" vertex="1" parent="9hZkq3OmeFO8TmYf6UCF-1">
          <mxGeometry x="20" y="575.01" width="70" height="43.5" as="geometry" />
        </mxCell>
        <mxCell id="9hZkq3OmeFO8TmYf6UCF-15" value="" style="endArrow=classic;startArrow=classic;html=1;exitX=1;exitY=0.5;exitDx=0;exitDy=0;" edge="1" parent="9hZkq3OmeFO8TmYf6UCF-1" source="9hZkq3OmeFO8TmYf6UCF-10">
          <mxGeometry width="50" height="50" relative="1" as="geometry">
            <mxPoint x="50" y="637.24" as="sourcePoint" />
            <mxPoint x="150" y="232.99" as="targetPoint" />
          </mxGeometry>
        </mxCell>
        <mxCell id="9hZkq3OmeFO8TmYf6UCF-16" value="" style="endArrow=classic;startArrow=classic;html=1;exitX=1;exitY=0.49;exitDx=0;exitDy=0;exitPerimeter=0;entryX=0;entryY=0.5;entryDx=0;entryDy=0;" edge="1" parent="9hZkq3OmeFO8TmYf6UCF-1" source="9hZkq3OmeFO8TmYf6UCF-12" target="9hZkq3OmeFO8TmYf6UCF-36">
          <mxGeometry width="50" height="50" relative="1" as="geometry">
            <mxPoint x="131" y="347.65999999999997" as="sourcePoint" />
            <mxPoint x="140" y="347.25" as="targetPoint" />
          </mxGeometry>
        </mxCell>
        <mxCell id="9hZkq3OmeFO8TmYf6UCF-17" value="" style="endArrow=classic;startArrow=classic;html=1;exitX=1;exitY=0.5;exitDx=0;exitDy=0;entryX=0;entryY=0.5;entryDx=0;entryDy=0;" edge="1" parent="9hZkq3OmeFO8TmYf6UCF-1" source="9hZkq3OmeFO8TmYf6UCF-13" target="9hZkq3OmeFO8TmYf6UCF-44">
          <mxGeometry width="50" height="50" relative="1" as="geometry">
            <mxPoint x="130" y="462.63" as="sourcePoint" />
            <mxPoint x="140" y="462.63" as="targetPoint" />
          </mxGeometry>
        </mxCell>
        <mxCell id="9hZkq3OmeFO8TmYf6UCF-18" value="" style="endArrow=classic;startArrow=classic;html=1;exitX=1;exitY=0.5;exitDx=0;exitDy=0;entryX=0;entryY=0.5;entryDx=0;entryDy=0;" edge="1" parent="9hZkq3OmeFO8TmYf6UCF-1" source="9hZkq3OmeFO8TmYf6UCF-14" target="9hZkq3OmeFO8TmYf6UCF-52">
          <mxGeometry width="50" height="50" relative="1" as="geometry">
            <mxPoint x="120" y="587.51" as="sourcePoint" />
            <mxPoint x="140" y="564.295714285714" as="targetPoint" />
          </mxGeometry>
        </mxCell>
        <mxCell id="9hZkq3OmeFO8TmYf6UCF-19" value="server" style="rounded=1;whiteSpace=wrap;html=1;fontSize=15;shadow=0;sketch=0;glass=0;" vertex="1" parent="9hZkq3OmeFO8TmYf6UCF-1">
          <mxGeometry x="750" y="210.62" width="70" height="52.75" as="geometry" />
        </mxCell>
        <mxCell id="9hZkq3OmeFO8TmYf6UCF-20" value="server" style="rounded=1;whiteSpace=wrap;html=1;fontSize=15;shadow=0;sketch=0;glass=0;" vertex="1" parent="9hZkq3OmeFO8TmYf6UCF-1">
          <mxGeometry x="750" y="323.62" width="70" height="52.75" as="geometry" />
        </mxCell>
        <mxCell id="9hZkq3OmeFO8TmYf6UCF-21" value="server" style="rounded=1;whiteSpace=wrap;html=1;fontSize=15;shadow=0;sketch=0;glass=0;" vertex="1" parent="9hZkq3OmeFO8TmYf6UCF-1">
          <mxGeometry x="750" y="443.63" width="70" height="52.75" as="geometry" />
        </mxCell>
        <mxCell id="9hZkq3OmeFO8TmYf6UCF-22" value="server" style="rounded=1;whiteSpace=wrap;html=1;fontSize=15;shadow=0;sketch=0;glass=0;" vertex="1" parent="9hZkq3OmeFO8TmYf6UCF-1">
          <mxGeometry x="750" y="573.63" width="70" height="47.25" as="geometry" />
        </mxCell>
        <mxCell id="9hZkq3OmeFO8TmYf6UCF-23" value="" style="endArrow=none;dashed=1;html=1;dashPattern=1 3;strokeWidth=2;" edge="1" parent="9hZkq3OmeFO8TmYf6UCF-1">
          <mxGeometry width="50" height="50" relative="1" as="geometry">
            <mxPoint x="58" y="547.6300000000001" as="sourcePoint" />
            <mxPoint x="58" y="527.6300000000001" as="targetPoint" />
          </mxGeometry>
        </mxCell>
        <mxCell id="9hZkq3OmeFO8TmYf6UCF-24" value="" style="endArrow=none;dashed=1;html=1;dashPattern=1 3;strokeWidth=2;" edge="1" parent="9hZkq3OmeFO8TmYf6UCF-1">
          <mxGeometry width="50" height="50" relative="1" as="geometry">
            <mxPoint x="784.9999999999998" y="550" as="sourcePoint" />
            <mxPoint x="784.9999999999998" y="530" as="targetPoint" />
          </mxGeometry>
        </mxCell>
        <mxCell id="9hZkq3OmeFO8TmYf6UCF-25" value="" style="ndArrow=classic;startArrow=classic;edgeStyle=orthogonalEdgeStyle;rounded=0;orthogonalLoop=1;jettySize=auto;html=1;sketch=0;exitX=1;exitY=0.5;exitDx=0;exitDy=0;" edge="1" parent="9hZkq3OmeFO8TmYf6UCF-1" source="9hZkq3OmeFO8TmYf6UCF-26" target="9hZkq3OmeFO8TmYf6UCF-19">
          <mxGeometry relative="1" as="geometry">
            <mxPoint x="670" y="230.25" as="sourcePoint" />
          </mxGeometry>
        </mxCell>
        <mxCell id="9hZkq3OmeFO8TmYf6UCF-26" value="ssh监听线程" style="rounded=1;whiteSpace=wrap;html=1;fontSize=15;shadow=0;sketch=0;glass=0;" vertex="1" parent="9hZkq3OmeFO8TmYf6UCF-1">
          <mxGeometry x="622" y="208" width="90" height="60" as="geometry" />
        </mxCell>
        <mxCell id="9hZkq3OmeFO8TmYf6UCF-27" value="" style="ndArrow=classic;startArrow=classic;edgeStyle=orthogonalEdgeStyle;rounded=0;orthogonalLoop=1;jettySize=auto;html=1;exitX=1;exitY=0.5;exitDx=0;exitDy=0;" edge="1" parent="9hZkq3OmeFO8TmYf6UCF-1" source="9hZkq3OmeFO8TmYf6UCF-28" target="9hZkq3OmeFO8TmYf6UCF-20">
          <mxGeometry relative="1" as="geometry">
            <mxPoint x="670" y="350.25" as="sourcePoint" />
          </mxGeometry>
        </mxCell>
        <mxCell id="9hZkq3OmeFO8TmYf6UCF-28" value="ssh监听线程" style="rounded=1;whiteSpace=wrap;html=1;fontSize=15;shadow=0;sketch=0;glass=0;" vertex="1" parent="9hZkq3OmeFO8TmYf6UCF-1">
          <mxGeometry x="622" y="320" width="90" height="60" as="geometry" />
        </mxCell>
        <mxCell id="9hZkq3OmeFO8TmYf6UCF-29" value="" style="ndArrow=classic;startArrow=classic;edgeStyle=orthogonalEdgeStyle;rounded=0;orthogonalLoop=1;jettySize=auto;html=1;exitX=1;exitY=0.5;exitDx=0;exitDy=0;" edge="1" parent="9hZkq3OmeFO8TmYf6UCF-1" source="9hZkq3OmeFO8TmYf6UCF-30" target="9hZkq3OmeFO8TmYf6UCF-21">
          <mxGeometry relative="1" as="geometry">
            <mxPoint x="670" y="470.25" as="sourcePoint" />
          </mxGeometry>
        </mxCell>
        <mxCell id="9hZkq3OmeFO8TmYf6UCF-30" value="ssh监听线程" style="rounded=1;whiteSpace=wrap;html=1;fontSize=15;shadow=0;sketch=0;glass=0;" vertex="1" parent="9hZkq3OmeFO8TmYf6UCF-1">
          <mxGeometry x="622" y="440" width="90" height="60" as="geometry" />
        </mxCell>
        <mxCell id="9hZkq3OmeFO8TmYf6UCF-31" value="" style="ndArrow=classic;startArrow=classic;edgeStyle=orthogonalEdgeStyle;rounded=0;orthogonalLoop=1;jettySize=auto;html=1;exitX=1;exitY=0.5;exitDx=0;exitDy=0;" edge="1" parent="9hZkq3OmeFO8TmYf6UCF-1" source="9hZkq3OmeFO8TmYf6UCF-32" target="9hZkq3OmeFO8TmYf6UCF-22">
          <mxGeometry relative="1" as="geometry">
            <mxPoint x="670" y="597" as="sourcePoint" />
          </mxGeometry>
        </mxCell>
        <mxCell id="9hZkq3OmeFO8TmYf6UCF-32" value="ssh监听线程" style="rounded=1;whiteSpace=wrap;html=1;fontSize=15;shadow=0;sketch=0;glass=0;" vertex="1" parent="9hZkq3OmeFO8TmYf6UCF-1">
          <mxGeometry x="622" y="567.25" width="90" height="60" as="geometry" />
        </mxCell>
        <mxCell id="9hZkq3OmeFO8TmYf6UCF-33" value="" style="endArrow=none;dashed=1;html=1;dashPattern=1 3;strokeWidth=2;" edge="1" parent="9hZkq3OmeFO8TmYf6UCF-1">
          <mxGeometry width="50" height="50" relative="1" as="geometry">
            <mxPoint x="667" y="550" as="sourcePoint" />
            <mxPoint x="667" y="530" as="targetPoint" />
          </mxGeometry>
        </mxCell>
        <mxCell id="9hZkq3OmeFO8TmYf6UCF-34" value="Listener Threads" style="rounded=0;whiteSpace=wrap;html=1;shadow=0;glass=0;dashed=1;sketch=0;gradientColor=none;strokeColor=none;" vertex="1" parent="9hZkq3OmeFO8TmYf6UCF-1">
          <mxGeometry x="629.5" y="170" width="70" height="30" as="geometry" />
        </mxCell>
        <mxCell id="9hZkq3OmeFO8TmYf6UCF-35" value="日志记录" style="rounded=1;whiteSpace=wrap;html=1;fontSize=15;" vertex="1" parent="9hZkq3OmeFO8TmYf6UCF-1">
          <mxGeometry x="170" y="189.99" width="40" height="80" as="geometry" />
        </mxCell>
        <mxCell id="9hZkq3OmeFO8TmYf6UCF-36" value="&lt;div style=&quot;text-align: justify&quot;&gt;&lt;/div&gt;" style="rounded=0;whiteSpace=wrap;html=1;shadow=0;glass=0;dashed=1;sketch=0;gradientColor=none;fillColor=#FFFFFF;" vertex="1" parent="9hZkq3OmeFO8TmYf6UCF-1">
          <mxGeometry x="150" y="300" width="440" height="100" as="geometry" />
        </mxCell>
        <mxCell id="9hZkq3OmeFO8TmYf6UCF-37" value="http协议解析" style="rounded=1;whiteSpace=wrap;html=1;fontSize=15;" vertex="1" parent="9hZkq3OmeFO8TmYf6UCF-1">
          <mxGeometry x="230" y="310" width="40" height="80" as="geometry" />
        </mxCell>
        <mxCell id="9hZkq3OmeFO8TmYf6UCF-38" value="http响应封装" style="rounded=1;whiteSpace=wrap;html=1;fontSize=15;" vertex="1" parent="9hZkq3OmeFO8TmYf6UCF-1">
          <mxGeometry x="290" y="310" width="40" height="80" as="geometry" />
        </mxCell>
        <mxCell id="9hZkq3OmeFO8TmYf6UCF-39" value="ws协议解析" style="rounded=1;whiteSpace=wrap;html=1;fontSize=15;" vertex="1" parent="9hZkq3OmeFO8TmYf6UCF-1">
          <mxGeometry x="410" y="310" width="40" height="80" as="geometry" />
        </mxCell>
        <mxCell id="9hZkq3OmeFO8TmYf6UCF-40" value="ws处理器" style="rounded=1;whiteSpace=wrap;html=1;fontSize=15;" vertex="1" parent="9hZkq3OmeFO8TmYf6UCF-1">
          <mxGeometry x="470" y="310" width="40" height="80" as="geometry" />
        </mxCell>
        <mxCell id="9hZkq3OmeFO8TmYf6UCF-41" value="会话管理器" style="rounded=1;whiteSpace=wrap;html=1;fontSize=15;" vertex="1" parent="9hZkq3OmeFO8TmYf6UCF-1">
          <mxGeometry x="530" y="310" width="40" height="80" as="geometry" />
        </mxCell>
        <mxCell id="9hZkq3OmeFO8TmYf6UCF-42" value="心跳检测" style="rounded=1;whiteSpace=wrap;html=1;fontSize=15;" vertex="1" parent="9hZkq3OmeFO8TmYf6UCF-1">
          <mxGeometry x="350" y="310" width="40" height="80" as="geometry" />
        </mxCell>
        <mxCell id="9hZkq3OmeFO8TmYf6UCF-43" value="日志记录" style="rounded=1;whiteSpace=wrap;html=1;fontSize=15;" vertex="1" parent="9hZkq3OmeFO8TmYf6UCF-1">
          <mxGeometry x="170" y="310" width="40" height="80" as="geometry" />
        </mxCell>
        <mxCell id="9hZkq3OmeFO8TmYf6UCF-44" value="&lt;div style=&quot;text-align: justify&quot;&gt;&lt;/div&gt;" style="rounded=0;whiteSpace=wrap;html=1;shadow=0;glass=0;dashed=1;sketch=0;gradientColor=none;fillColor=#FFFFFF;" vertex="1" parent="9hZkq3OmeFO8TmYf6UCF-1">
          <mxGeometry x="150" y="416.38" width="440" height="100" as="geometry" />
        </mxCell>
        <mxCell id="9hZkq3OmeFO8TmYf6UCF-45" value="http协议解析" style="rounded=1;whiteSpace=wrap;html=1;fontSize=15;" vertex="1" parent="9hZkq3OmeFO8TmYf6UCF-1">
          <mxGeometry x="230" y="426.38" width="40" height="80" as="geometry" />
        </mxCell>
        <mxCell id="9hZkq3OmeFO8TmYf6UCF-46" value="http响应封装" style="rounded=1;whiteSpace=wrap;html=1;fontSize=15;" vertex="1" parent="9hZkq3OmeFO8TmYf6UCF-1">
          <mxGeometry x="290" y="426.38" width="40" height="80" as="geometry" />
        </mxCell>
        <mxCell id="9hZkq3OmeFO8TmYf6UCF-47" value="ws协议解析" style="rounded=1;whiteSpace=wrap;html=1;fontSize=15;" vertex="1" parent="9hZkq3OmeFO8TmYf6UCF-1">
          <mxGeometry x="410" y="426.38" width="40" height="80" as="geometry" />
        </mxCell>
        <mxCell id="9hZkq3OmeFO8TmYf6UCF-48" value="ws处理器" style="rounded=1;whiteSpace=wrap;html=1;fontSize=15;" vertex="1" parent="9hZkq3OmeFO8TmYf6UCF-1">
          <mxGeometry x="470" y="426.38" width="40" height="80" as="geometry" />
        </mxCell>
        <mxCell id="9hZkq3OmeFO8TmYf6UCF-49" value="会话管理器" style="rounded=1;whiteSpace=wrap;html=1;fontSize=15;" vertex="1" parent="9hZkq3OmeFO8TmYf6UCF-1">
          <mxGeometry x="530" y="426.38" width="40" height="80" as="geometry" />
        </mxCell>
        <mxCell id="9hZkq3OmeFO8TmYf6UCF-50" value="心跳检测" style="rounded=1;whiteSpace=wrap;html=1;fontSize=15;" vertex="1" parent="9hZkq3OmeFO8TmYf6UCF-1">
          <mxGeometry x="350" y="426.38" width="40" height="80" as="geometry" />
        </mxCell>
        <mxCell id="9hZkq3OmeFO8TmYf6UCF-51" value="日志记录" style="rounded=1;whiteSpace=wrap;html=1;fontSize=15;" vertex="1" parent="9hZkq3OmeFO8TmYf6UCF-1">
          <mxGeometry x="170" y="426.38" width="40" height="80" as="geometry" />
        </mxCell>
        <mxCell id="9hZkq3OmeFO8TmYf6UCF-52" value="&lt;div style=&quot;text-align: justify&quot;&gt;&lt;/div&gt;" style="rounded=0;whiteSpace=wrap;html=1;shadow=0;glass=0;dashed=1;sketch=0;gradientColor=none;fillColor=#FFFFFF;" vertex="1" parent="9hZkq3OmeFO8TmYf6UCF-1">
          <mxGeometry x="150" y="547.26" width="440" height="100" as="geometry" />
        </mxCell>
        <mxCell id="9hZkq3OmeFO8TmYf6UCF-53" value="http协议解析" style="rounded=1;whiteSpace=wrap;html=1;fontSize=15;" vertex="1" parent="9hZkq3OmeFO8TmYf6UCF-1">
          <mxGeometry x="230" y="557.26" width="40" height="80" as="geometry" />
        </mxCell>
        <mxCell id="9hZkq3OmeFO8TmYf6UCF-54" value="http响应封装" style="rounded=1;whiteSpace=wrap;html=1;fontSize=15;" vertex="1" parent="9hZkq3OmeFO8TmYf6UCF-1">
          <mxGeometry x="290" y="557.26" width="40" height="80" as="geometry" />
        </mxCell>
        <mxCell id="9hZkq3OmeFO8TmYf6UCF-55" value="ws协议解析" style="rounded=1;whiteSpace=wrap;html=1;fontSize=15;" vertex="1" parent="9hZkq3OmeFO8TmYf6UCF-1">
          <mxGeometry x="410" y="557.26" width="40" height="80" as="geometry" />
        </mxCell>
        <mxCell id="9hZkq3OmeFO8TmYf6UCF-56" value="ws处理器" style="rounded=1;whiteSpace=wrap;html=1;fontSize=15;" vertex="1" parent="9hZkq3OmeFO8TmYf6UCF-1">
          <mxGeometry x="470" y="557.26" width="40" height="80" as="geometry" />
        </mxCell>
        <mxCell id="9hZkq3OmeFO8TmYf6UCF-57" value="会话管理器" style="rounded=1;whiteSpace=wrap;html=1;fontSize=15;" vertex="1" parent="9hZkq3OmeFO8TmYf6UCF-1">
          <mxGeometry x="530" y="557.26" width="40" height="80" as="geometry" />
        </mxCell>
        <mxCell id="9hZkq3OmeFO8TmYf6UCF-58" value="心跳检测" style="rounded=1;whiteSpace=wrap;html=1;fontSize=15;" vertex="1" parent="9hZkq3OmeFO8TmYf6UCF-1">
          <mxGeometry x="350" y="557.26" width="40" height="80" as="geometry" />
        </mxCell>
        <mxCell id="9hZkq3OmeFO8TmYf6UCF-59" value="日志记录" style="rounded=1;whiteSpace=wrap;html=1;fontSize=15;" vertex="1" parent="9hZkq3OmeFO8TmYf6UCF-1">
          <mxGeometry x="170" y="557.26" width="40" height="80" as="geometry" />
        </mxCell>
        <mxCell id="9hZkq3OmeFO8TmYf6UCF-60" value="Response" style="rounded=0;whiteSpace=wrap;html=1;shadow=0;glass=0;dashed=1;sketch=0;gradientColor=none;strokeColor=none;fillColor=none;" vertex="1" parent="9hZkq3OmeFO8TmYf6UCF-1">
          <mxGeometry x="90" y="607.26" width="50" height="30" as="geometry" />
        </mxCell>
        <mxCell id="9hZkq3OmeFO8TmYf6UCF-61" value="Request" style="rounded=0;whiteSpace=wrap;html=1;shadow=0;glass=0;dashed=1;sketch=0;gradientColor=none;strokeColor=none;fontSize=8;fillColor=none;" vertex="1" parent="9hZkq3OmeFO8TmYf6UCF-1">
          <mxGeometry x="90" y="189.99" width="50" height="30" as="geometry" />
        </mxCell>
        <mxCell id="9hZkq3OmeFO8TmYf6UCF-62" value="" style="endArrow=classic;startArrow=classic;html=1;fontSize=8;exitX=1.003;exitY=0.595;exitDx=0;exitDy=0;exitPerimeter=0;entryX=0;entryY=0.5;entryDx=0;entryDy=0;" edge="1" parent="9hZkq3OmeFO8TmYf6UCF-1" source="9hZkq3OmeFO8TmYf6UCF-3" target="9hZkq3OmeFO8TmYf6UCF-26">
          <mxGeometry width="50" height="50" relative="1" as="geometry">
            <mxPoint x="540" y="130" as="sourcePoint" />
            <mxPoint x="590" y="80" as="targetPoint" />
          </mxGeometry>
        </mxCell>
        <mxCell id="9hZkq3OmeFO8TmYf6UCF-63" value="" style="endArrow=classic;startArrow=classic;html=1;fontSize=8;exitX=1.003;exitY=0.595;exitDx=0;exitDy=0;exitPerimeter=0;entryX=0;entryY=0.5;entryDx=0;entryDy=0;" edge="1" parent="9hZkq3OmeFO8TmYf6UCF-1">
          <mxGeometry width="50" height="50" relative="1" as="geometry">
            <mxPoint x="589.9999999999998" y="350.61374999999987" as="sourcePoint" />
            <mxPoint x="620.6799999999996" y="349.37999999999977" as="targetPoint" />
          </mxGeometry>
        </mxCell>
        <mxCell id="9hZkq3OmeFO8TmYf6UCF-64" value="" style="endArrow=classic;startArrow=classic;html=1;fontSize=8;exitX=1.003;exitY=0.595;exitDx=0;exitDy=0;exitPerimeter=0;entryX=0;entryY=0.5;entryDx=0;entryDy=0;" edge="1" parent="9hZkq3OmeFO8TmYf6UCF-1">
          <mxGeometry width="50" height="50" relative="1" as="geometry">
            <mxPoint x="589.9999999999998" y="470.62375" as="sourcePoint" />
            <mxPoint x="620.6799999999996" y="469.3899999999999" as="targetPoint" />
          </mxGeometry>
        </mxCell>
        <mxCell id="9hZkq3OmeFO8TmYf6UCF-65" value="" style="endArrow=classic;startArrow=classic;html=1;fontSize=8;exitX=1.003;exitY=0.595;exitDx=0;exitDy=0;exitPerimeter=0;entryX=0;entryY=0.5;entryDx=0;entryDy=0;" edge="1" parent="9hZkq3OmeFO8TmYf6UCF-1">
          <mxGeometry width="50" height="50" relative="1" as="geometry">
            <mxPoint x="589.9999999999998" y="597.87375" as="sourcePoint" />
            <mxPoint x="620.6799999999996" y="596.6399999999999" as="targetPoint" />
          </mxGeometry>
        </mxCell>
        <mxCell id="9hZkq3OmeFO8TmYf6UCF-66" value="&lt;font style=&quot;font-size: 15px&quot;&gt;proxy server&lt;/font&gt;" style="rounded=0;whiteSpace=wrap;html=1;shadow=0;glass=0;dashed=1;sketch=0;fontSize=8;fillColor=none;gradientColor=none;strokeColor=none;" vertex="1" parent="9hZkq3OmeFO8TmYf6UCF-1">
          <mxGeometry x="330" y="129.99" width="120" height="60" as="geometry" />
        </mxCell>
      </root>
    </mxGraphModel>
  </diagram>
</mxfile>
